<?xml version="1.0" standalone="no"?>
<!DOCTYPE svg PUBLIC "-//W3C//DTD SVG 20010904//EN"
 "http://www.w3.org/TR/2001/REC-SVG-20010904/DTD/svg10.dtd">
<svg version="1.0" xmlns="http://www.w3.org/2000/svg"
 width="441.000000pt" height="441.000000pt" viewBox="0 0 441.000000 441.000000"
 preserveAspectRatio="xMidYMid meet">
<metadata>
Created by potrace 1.11, written by Peter Selinger 2001-2013
</metadata>
<g transform="translate(0.000000,441.000000) scale(0.100000,-0.100000)"
fill="#000000" stroke="none">
<path d="M0 2205 l0 -2205 2205 0 2205 0 0 2205 0 2205 -2205 0 -2205 0 0
-2205z m2407 948 l461 -388 302 -375 c166 -206 306 -385 311 -398 13 -33 11
-452 -1 -489 -9 -25 -70 -65 -403 -266 l-392 -237 -547 0 -548 0 -318 239
c-176 131 -322 246 -325 256 -4 9 -7 257 -7 550 l0 534 163 323 162 323 310
157 c190 96 322 157 340 158 26 0 102 -60 492 -387z"/>
<path d="M1614 3228 l-241 -121 -130 -261 -131 -262 690 -627 c380 -345 692
-626 694 -625 6 7 -622 2012 -631 2014 -6 2 -118 -52 -251 -118z"/>
<path d="M2072 3219 c3 -8 126 -404 274 -881 148 -476 270 -863 271 -860 9 22
111 1208 105 1213 -157 132 -631 527 -641 534 -10 6 -13 4 -9 -6z"/>
<path d="M2866 2489 c-6 -30 -117 -1261 -113 -1265 1 -1 131 75 289 169 l287
172 1 192 0 191 -216 269 c-261 324 -241 303 -248 272z"/>
<path d="M1225 2262 c4 -13 105 -267 225 -565 l218 -542 398 -3 c229 -1 394 1
389 7 -6 4 -264 239 -575 521 -311 282 -587 534 -614 559 -38 36 -47 41 -41
23z"/>
<path d="M1090 1865 l1 -300 161 -120 c205 -153 192 -146 169 -88 -165 417
-316 790 -322 798 -5 5 -9 -124 -9 -290z"/>
</g>
</svg>
