<svg id="Layer_1" data-name="Layer 1" xmlns="http://www.w3.org/2000/svg" viewBox="0 0 220 220"><defs><style>.cls-1{fill:#fff;}</style></defs><title>Artboard 2</title><path class="cls-1" d="M208,21.68a5,5,0,0,0-4.79-.33L140.69,50.2,78.18,21.35a1.45,1.45,0,0,0-.29-.11l-.27-.11-.33-.08L77,21l-.33-.05-.28,0h-.62l-.32,0-.3,0-.31.07-.3.08-.28.11-.28.11L9.38,51.17a5,5,0,0,0-2.9,4.54V189.89a5,5,0,0,0,5,5,4.93,4.93,0,0,0,2.09-.46l62.52-28.85,62.51,28.85h0l.08,0a4.6,4.6,0,0,0,.52.19l.19.06.46.09a1.08,1.08,0,0,0,.19,0,4.46,4.46,0,0,0,.63,0,4.72,4.72,0,0,0,.64,0l.18,0a3.4,3.4,0,0,0,.46-.09l.19-.06a5.62,5.62,0,0,0,.53-.19l.07,0h0l64.6-29.82a5,5,0,0,0,2.91-4.54V25.89A5,5,0,0,0,208,21.68ZM16.48,58.91,71.09,33.7V156.87l-54.61,25.2ZM81.09,33.7l54.6,25.21V182.07l-54.6-25.2ZM200.3,156.87l-54.61,25.2V58.91L200.3,33.7Z"/></svg>