<svg id="Layer_1" data-name="Layer 1" xmlns="http://www.w3.org/2000/svg" viewBox="0 0 220 220"><defs><style>.cls-1{fill:#fff;}</style></defs><title>Artboard 1</title><path class="cls-1" d="M197.46,124c-44.54-55.21-42-52.07-42.47-52.5,0,0,0,0,0,0L92.76,19.26a5.18,5.18,0,0,0-5.58-.69l-.07,0L45.65,39.33a5.09,5.09,0,0,0-2.31,2.3L22.26,83.43a.08.08,0,0,1,0,0,5.2,5.2,0,0,0-.52,2.1.86.86,0,0,0,0,.16v72.58a5.21,5.21,0,0,0,2.07,4.15l41.74,31.39h0l0,0a5.31,5.31,0,0,0,3.12,1h72.56a5.17,5.17,0,0,0,2.67-.75h0l52.17-31.44a5.16,5.16,0,0,0,2.51-4.44V127.23A5.23,5.23,0,0,0,197.46,124ZM32.08,155.74V112.55L57,174.45ZM72.2,184.58h0L40.14,104.82l87.71,79.76Zm-38.91-100L51.82,47.83,86.29,30.59l44.36,142.52Zm105.16,78.73L99.62,38.55l46.6,39.08Zm49.79-7.91-40.9,24.65,1-11,7.29-80.4,32.61,40.44V155.4Z"/></svg>