<svg id="Layer_1" data-name="Layer 1" xmlns="http://www.w3.org/2000/svg" viewBox="0 0 220 220"><defs><style>.cls-1{fill:#fff;}</style></defs><title>Artboard 3</title><path class="cls-1" d="M52.38,192.48A35.74,35.74,0,1,1,66,123.73L86.36,109.5,66,95.27A35.76,35.76,0,1,1,85,76.84l16.8,11.77L159.8,48a30.13,30.13,0,0,1,41.86,7.6,4,4,0,0,1-1,5.57L131.59,109.5l69.08,48.37a4,4,0,0,1,1,5.57,30.18,30.18,0,0,1-19.38,12.43A29.51,29.51,0,0,1,159.8,171l-58.05-40.64L85,142.16A36,36,0,0,1,72.83,186,35.54,35.54,0,0,1,52.38,192.48ZM52.32,129a27.75,27.75,0,1,0,24,13.88,4,4,0,0,1,1.16-5.28l21.95-15.37a4,4,0,0,1,4.59,0l60.34,42.25A21.6,21.6,0,0,0,180.83,168a22.27,22.27,0,0,0,11.69-6.08l-70.2-49.14a4,4,0,0,1,0-6.56l70.2-49.15a22,22,0,0,0-28.13-2.55L104,96.77a4,4,0,0,1-4.58,0L77.51,81.4a4,4,0,0,1-1.16-5.28,27.73,27.73,0,1,0-11.67,11,4,4,0,0,1,4.07.31l26.87,18.81a4,4,0,0,1,0,6.56L68.75,131.59a4,4,0,0,1-4.07.31A27.78,27.78,0,0,0,52.32,129Zm.07,45a17.33,17.33,0,1,1,17.33-17.33A17.34,17.34,0,0,1,52.39,174Zm0-26.66a9.33,9.33,0,1,0,9.33,9.33A9.35,9.35,0,0,0,52.39,147.35Zm0-67.7A17.33,17.33,0,1,1,69.72,62.32,17.34,17.34,0,0,1,52.39,79.65Zm0-26.66a9.33,9.33,0,1,0,9.33,9.33A9.35,9.35,0,0,0,52.39,53Z"/></svg>